<svg width="400" height="300" viewBox="0 0 400 300" xmlns="http://www.w3.org/2000/svg"><rect width="100%" height="100%" fill="white"/><line x1="40" y1="260" x2="360" y2="260" stroke="black" stroke-width="2"/><line x1="40" y1="40" x2="40" y2="260" stroke="black" stroke-width="2"/><rect x="44.57142857142857" y="251.2" width="36.57142857142858" height="8.8" fill="#22c55e" stroke="black" stroke-width="1"/><text x="62.85714285714286" y="275" font-size="10" text-anchor="middle" font-family="sans-serif">과일</text><text x="62.85714285714286" y="246.2" font-size="10" text-anchor="middle" font-weight="bold">1</text><rect x="90.28571428571429" y="233.6" width="36.57142857142858" height="26.4" fill="#22c55e" stroke="black" stroke-width="1"/><text x="108.57142857142858" y="275" font-size="10" text-anchor="middle" font-family="sans-serif">코코넛</text><text x="108.57142857142858" y="228.6" font-size="10" text-anchor="middle" font-weight="bold">3</text><rect x="136.00000000000003" y="101.6" width="36.57142857142858" height="158.4" fill="#22c55e" stroke="black" stroke-width="1"/><text x="154.2857142857143" y="275" font-size="10" text-anchor="middle" font-family="sans-serif">귤</text><text x="154.2857142857143" y="96.6" font-size="10" text-anchor="middle" font-weight="bold">18</text><rect x="181.71428571428572" y="40.0" width="36.57142857142858" height="220.0" fill="#22c55e" stroke="black" stroke-width="1"/><text x="200.0" y="275" font-size="10" text-anchor="middle" font-family="sans-serif">오렌지</text><text x="200.0" y="35.0" font-size="10" text-anchor="middle" font-weight="bold">25</text><rect x="227.42857142857144" y="216.0" width="36.57142857142858" height="44.0" fill="#22c55e" stroke="black" stroke-width="1"/><text x="245.71428571428572" y="275" font-size="10" text-anchor="middle" font-family="sans-serif">코코넛</text><text x="245.71428571428572" y="211.0" font-size="10" text-anchor="middle" font-weight="bold">5</text><rect x="273.1428571428571" y="128.0" width="36.57142857142858" height="132.0" fill="#22c55e" stroke="black" stroke-width="1"/><text x="291.4285714285714" y="275" font-size="10" text-anchor="middle" font-family="sans-serif">귤</text><text x="291.4285714285714" y="123.0" font-size="10" text-anchor="middle" font-weight="bold">15</text><rect x="318.85714285714283" y="207.2" width="36.57142857142858" height="52.8" fill="#22c55e" stroke="black" stroke-width="1"/><text x="337.1428571428571" y="275" font-size="10" text-anchor="middle" font-family="sans-serif">오렌지</text><text x="337.1428571428571" y="202.2" font-size="10" text-anchor="middle" font-weight="bold">6</text><text x="200.0" y="30" font-size="14" text-anchor="middle" font-weight="bold">좋아하는 과일 조사</text></svg>