<svg width="400" height="300" viewBox="0 0 400 300" xmlns="http://www.w3.org/2000/svg"><rect width="100%" height="100%" fill="white"/><line x1="40" y1="260" x2="360" y2="260" stroke="black" stroke-width="2"/><line x1="40" y1="40" x2="40" y2="260" stroke="black" stroke-width="2"/><rect x="43.2" y="55.714285714285694" width="25.6" height="204.2857142857143" fill="#22c55e" stroke="black" stroke-width="1"/><text x="56.0" y="275" font-size="10" text-anchor="middle" font-family="sans-serif">아버지</text><text x="56.0" y="50.714285714285694" font-size="10" text-anchor="middle" font-weight="bold">13</text><rect x="75.2" y="181.42857142857144" width="25.6" height="78.57142857142857" fill="#22c55e" stroke="black" stroke-width="1"/><text x="88.0" y="275" font-size="10" text-anchor="middle" font-family="sans-serif">어머니</text><text x="88.0" y="176.42857142857144" font-size="10" text-anchor="middle" font-weight="bold">5</text><rect x="107.2" y="87.14285714285714" width="25.6" height="172.85714285714286" fill="#22c55e" stroke="black" stroke-width="1"/><text x="120.0" y="275" font-size="10" text-anchor="middle" font-family="sans-serif">아버지</text><text x="120.0" y="82.14285714285714" font-size="10" text-anchor="middle" font-weight="bold">11</text><rect x="139.2" y="134.28571428571428" width="25.6" height="125.71428571428571" fill="#22c55e" stroke="black" stroke-width="1"/><text x="152.0" y="275" font-size="10" text-anchor="middle" font-family="sans-serif">어머니</text><text x="152.0" y="129.28571428571428" font-size="10" text-anchor="middle" font-weight="bold">8</text><rect x="171.2" y="87.14285714285714" width="25.6" height="172.85714285714286" fill="#22c55e" stroke="black" stroke-width="1"/><text x="184.0" y="275" font-size="10" text-anchor="middle" font-family="sans-serif">아버지</text><text x="184.0" y="82.14285714285714" font-size="10" text-anchor="middle" font-weight="bold">11</text><rect x="203.2" y="118.57142857142856" width="25.6" height="141.42857142857144" fill="#22c55e" stroke="black" stroke-width="1"/><text x="216.0" y="275" font-size="10" text-anchor="middle" font-family="sans-serif">어머니</text><text x="216.0" y="113.57142857142856" font-size="10" text-anchor="middle" font-weight="bold">9</text><rect x="235.2" y="55.714285714285694" width="25.6" height="204.2857142857143" fill="#22c55e" stroke="black" stroke-width="1"/><text x="248.0" y="275" font-size="10" text-anchor="middle" font-family="sans-serif">아버지</text><text x="248.0" y="50.714285714285694" font-size="10" text-anchor="middle" font-weight="bold">13</text><rect x="267.2" y="150.0" width="25.6" height="110.0" fill="#22c55e" stroke="black" stroke-width="1"/><text x="280.0" y="275" font-size="10" text-anchor="middle" font-family="sans-serif">어머니</text><text x="280.0" y="145.0" font-size="10" text-anchor="middle" font-weight="bold">7</text><rect x="299.2" y="40.0" width="25.6" height="220.0" fill="#22c55e" stroke="black" stroke-width="1"/><text x="312.0" y="275" font-size="10" text-anchor="middle" font-family="sans-serif">아버지</text><text x="312.0" y="35.0" font-size="10" text-anchor="middle" font-weight="bold">14</text><rect x="331.2" y="181.42857142857144" width="25.6" height="78.57142857142857" fill="#22c55e" stroke="black" stroke-width="1"/><text x="344.0" y="275" font-size="10" text-anchor="middle" font-family="sans-serif">어머니</text><text x="344.0" y="176.42857142857144" font-size="10" text-anchor="middle" font-weight="bold">5</text><text x="200.0" y="30" font-size="14" text-anchor="middle" font-weight="bold">조사 결과</text></svg>