<svg width="400" height="300" viewBox="0 0 400 300" xmlns="http://www.w3.org/2000/svg"><rect width="100%" height="100%" fill="white"/><line x1="40" y1="260" x2="360" y2="260" stroke="black" stroke-width="2"/><line x1="40" y1="40" x2="40" y2="260" stroke="black" stroke-width="2"/><rect x="45.333333333333336" y="259.725" width="42.66666666666667" height="0.275" fill="#22c55e" stroke="black" stroke-width="1"/><text x="66.66666666666667" y="275" font-size="10" text-anchor="middle" font-family="sans-serif">시간</text><text x="66.66666666666667" y="254.72500000000002" font-size="10" text-anchor="middle" font-weight="bold">5</text><rect x="98.66666666666667" y="40.0" width="42.66666666666667" height="220.0" fill="#22c55e" stroke="black" stroke-width="1"/><text x="120.0" y="275" font-size="10" text-anchor="middle" font-family="sans-serif">비용</text><text x="120.0" y="35.0" font-size="10" text-anchor="middle" font-weight="bold">4000</text><rect x="152.00000000000003" y="259.175" width="42.66666666666667" height="0.825" fill="#22c55e" stroke="black" stroke-width="1"/><text x="173.33333333333337" y="275" font-size="10" text-anchor="middle" font-family="sans-serif">시간</text><text x="173.33333333333337" y="254.175" font-size="10" text-anchor="middle" font-weight="bold">15</text><rect x="205.33333333333334" y="177.5" width="42.66666666666667" height="82.5" fill="#22c55e" stroke="black" stroke-width="1"/><text x="226.66666666666669" y="275" font-size="10" text-anchor="middle" font-family="sans-serif">비용</text><text x="226.66666666666669" y="172.5" font-size="10" text-anchor="middle" font-weight="bold">1500</text><rect x="258.6666666666667" y="258.9" width="42.66666666666667" height="1.1" fill="#22c55e" stroke="black" stroke-width="1"/><text x="280.0" y="275" font-size="10" text-anchor="middle" font-family="sans-serif">시간</text><text x="280.0" y="253.89999999999998" font-size="10" text-anchor="middle" font-weight="bold">20</text><rect x="312.0" y="194.0" width="42.66666666666667" height="66.0" fill="#22c55e" stroke="black" stroke-width="1"/><text x="333.3333333333333" y="275" font-size="10" text-anchor="middle" font-family="sans-serif">비용</text><text x="333.3333333333333" y="189.0" font-size="10" text-anchor="middle" font-weight="bold">1200</text><text x="200.0" y="30" font-size="14" text-anchor="middle" font-weight="bold">조사 결과</text></svg>