<svg width="400" height="300" viewBox="0 0 400 300" xmlns="http://www.w3.org/2000/svg"><rect width="100%" height="100%" fill="white"/><line x1="40" y1="260" x2="360" y2="260" stroke="black" stroke-width="2"/><line x1="40" y1="40" x2="40" y2="260" stroke="black" stroke-width="2"/><rect x="45.333333333333336" y="40.0" width="42.66666666666667" height="220.0" fill="#22c55e" stroke="black" stroke-width="1"/><text x="66.66666666666667" y="275" font-size="10" text-anchor="middle" font-family="sans-serif">승용차</text><text x="66.66666666666667" y="35.0" font-size="10" text-anchor="middle" font-weight="bold">10</text><rect x="98.66666666666667" y="128.0" width="42.66666666666667" height="132.0" fill="#22c55e" stroke="black" stroke-width="1"/><text x="120.0" y="275" font-size="10" text-anchor="middle" font-family="sans-serif">트럭</text><text x="120.0" y="123.0" font-size="10" text-anchor="middle" font-weight="bold">6</text><rect x="152.00000000000003" y="84.0" width="42.66666666666667" height="176.0" fill="#22c55e" stroke="black" stroke-width="1"/><text x="173.33333333333337" y="275" font-size="10" text-anchor="middle" font-family="sans-serif">버스</text><text x="173.33333333333337" y="79.0" font-size="10" text-anchor="middle" font-weight="bold">8</text><rect x="205.33333333333334" y="194.0" width="42.66666666666667" height="66.0" fill="#22c55e" stroke="black" stroke-width="1"/><text x="226.66666666666669" y="275" font-size="10" text-anchor="middle" font-family="sans-serif">칸은</text><text x="226.66666666666669" y="189.0" font-size="10" text-anchor="middle" font-weight="bold">3</text><rect x="258.6666666666667" y="84.0" width="42.66666666666667" height="176.0" fill="#22c55e" stroke="black" stroke-width="1"/><text x="280.0" y="275" font-size="10" text-anchor="middle" font-family="sans-serif">버스가</text><text x="280.0" y="79.0" font-size="10" text-anchor="middle" font-weight="bold">8</text><rect x="312.0" y="128.0" width="42.66666666666667" height="132.0" fill="#22c55e" stroke="black" stroke-width="1"/><text x="333.3333333333333" y="275" font-size="10" text-anchor="middle" font-family="sans-serif">트럭이</text><text x="333.3333333333333" y="123.0" font-size="10" text-anchor="middle" font-weight="bold">6</text><text x="200.0" y="30" font-size="14" text-anchor="middle" font-weight="bold">조사 결과</text></svg>