<svg xmlns="http://www.w3.org/2000/svg" width="450" height="250" viewBox="0 0 450 250">
<rect width="450" height="250" fill="#F8FAFF" rx="10"/>
<line x1="50" y1="150" x2="130" y2="150" stroke="#4F46E5" stroke-width="2.5" stroke-linecap="round"/>
<line x1="50" y1="150" x2="10.000000000000014" y2="80.7179676972449" stroke="#4F46E5" stroke-width="2.5" stroke-linecap="round"/>
<path d="M 80,150 A 30,30 0 0,0 35.00000000000001,124.01923788646684" fill="none" stroke="#94a3b8" stroke-width="1.8"/>
<text x="72.5" y="111.02885682970026" text-anchor="middle" dominant-baseline="middle" font-size="16" fill="#1e293b" font-weight="bold">ㄱ</text>
<line x1="180" y1="150" x2="260" y2="150" stroke="#4F46E5" stroke-width="2.5" stroke-linecap="round"/>
<line x1="180" y1="150" x2="220.0" y2="80.71796769724492" stroke="#4F46E5" stroke-width="2.5" stroke-linecap="round"/>
<path d="M 210,150 A 30,30 0 0,0 195.0,124.01923788646684" fill="none" stroke="#94a3b8" stroke-width="1.8"/>
<text x="218.97114317029974" y="127.5" text-anchor="middle" dominant-baseline="middle" font-size="16" fill="#1e293b" font-weight="bold">ㄴ</text>
<line x1="330" y1="150" x2="410" y2="150" stroke="#4F46E5" stroke-width="2.5" stroke-linecap="round"/>
<line x1="330" y1="150" x2="399.2820323027551" y2="110.0" stroke="#4F46E5" stroke-width="2.5" stroke-linecap="round"/>
<path d="M 360,150 A 30,30 0 0,0 355.98076211353316,135.0" fill="none" stroke="#94a3b8" stroke-width="1.8"/>
<text x="373.46666218300805" y="138.35314297038656" text-anchor="middle" dominant-baseline="middle" font-size="16" fill="#1e293b" font-weight="bold">ㄷ</text>

</svg>