<svg xmlns="http://www.w3.org/2000/svg" width="450" height="250" viewBox="0 0 450 250">
<rect width="450" height="250" fill="#F8FAFF" rx="10"/>
<line x1="50" y1="150" x2="130" y2="150" stroke="#4F46E5" stroke-width="2.5" stroke-linecap="round"/>
<line x1="50" y1="150" x2="63.891854213354435" y2="71.21537975902336" stroke="#4F46E5" stroke-width="2.5" stroke-linecap="round"/>
<path d="M 80,150 A 30,30 0 0,0 55.20944533000791,120.45576740963375" fill="none" stroke="#94a3b8" stroke-width="1.8"/>
<text x="84.47199994035401" y="121.07455756410573" text-anchor="middle" dominant-baseline="middle" font-size="16" fill="#1e293b" font-weight="bold">ㄱ</text>
<line x1="180" y1="150" x2="260" y2="150" stroke="#4F46E5" stroke-width="2.5" stroke-linecap="round"/>
<line x1="180" y1="150" x2="255.17540966287268" y2="122.63838853394651" stroke="#4F46E5" stroke-width="2.5" stroke-linecap="round"/>
<path d="M 210,150 A 30,30 0 0,0 208.19077862357724,139.73939570022995" fill="none" stroke="#94a3b8" stroke-width="1.8"/>
<text x="224.31634888554936" y="142.18583200498813" text-anchor="middle" dominant-baseline="middle" font-size="16" fill="#1e293b" font-weight="bold">ㄴ</text>
<line x1="330" y1="150" x2="410" y2="150" stroke="#4F46E5" stroke-width="2.5" stroke-linecap="round"/>
<line x1="330" y1="150" x2="278.5769912250769" y2="88.71644455048175" stroke="#4F46E5" stroke-width="2.5" stroke-linecap="round"/>
<path d="M 360,150 A 30,30 0 0,0 310.7163717094038,127.01866670643066" fill="none" stroke="#94a3b8" stroke-width="1.8"/>
<text x="349.0178217783315" y="109.21614958335076" text-anchor="middle" dominant-baseline="middle" font-size="16" fill="#1e293b" font-weight="bold">ㄷ</text>

</svg>