<svg xmlns="http://www.w3.org/2000/svg" width="450" height="250" viewBox="0 0 450 250">
<rect width="450" height="250" fill="#F8FAFF" rx="10"/>
<line x1="50" y1="150" x2="130" y2="150" stroke="#4F46E5" stroke-width="2.5" stroke-linecap="round"/>
<line x1="50" y1="150" x2="111.28355544951825" y2="98.57699122507685" stroke="#4F46E5" stroke-width="2.5" stroke-linecap="round"/>
<path d="M 80,150 A 30,30 0 0,0 72.98133329356934,130.71637170940383" fill="none" stroke="#94a3b8" stroke-width="1.8"/>
<text x="92.28616793536588" y="134.6090935503449" text-anchor="middle" dominant-baseline="middle" font-size="16" fill="#1e293b" font-weight="bold">A</text>
<line x1="180" y1="150" x2="260" y2="150" stroke="#4F46E5" stroke-width="2.5" stroke-linecap="round"/>
<line x1="180" y1="150" x2="231.42300877492315" y2="88.71644455048175" stroke="#4F46E5" stroke-width="2.5" stroke-linecap="round"/>
<path d="M 210,150 A 30,30 0 0,0 199.28362829059617,127.01866670643066" fill="none" stroke="#94a3b8" stroke-width="1.8"/>
<text x="220.78385041664924" y="130.98217822166853" text-anchor="middle" dominant-baseline="middle" font-size="16" fill="#1e293b" font-weight="bold">B</text>
<line x1="330" y1="150" x2="410" y2="150" stroke="#4F46E5" stroke-width="2.5" stroke-linecap="round"/>
<line x1="330" y1="150" x2="399.2820323027551" y2="110.0" stroke="#4F46E5" stroke-width="2.5" stroke-linecap="round"/>
<path d="M 360,150 A 30,30 0 0,0 355.98076211353316,135.0" fill="none" stroke="#94a3b8" stroke-width="1.8"/>
<text x="373.46666218300805" y="138.35314297038656" text-anchor="middle" dominant-baseline="middle" font-size="16" fill="#1e293b" font-weight="bold">C</text>

</svg>