<svg xmlns="http://www.w3.org/2000/svg" width="450" height="250" viewBox="0 0 450 250">
<rect width="450" height="250" fill="#F8FAFF" rx="10"/>
<line x1="50" y1="150" x2="130" y2="150" stroke="#4F46E5" stroke-width="2.5" stroke-linecap="round"/>
<line x1="50" y1="150" x2="63.891854213354435" y2="71.21537975902336" stroke="#4F46E5" stroke-width="2.5" stroke-linecap="round"/>
<path d="M 80,150 A 30,30 0 0,0 55.20944533000791,120.45576740963375" fill="none" stroke="#94a3b8" stroke-width="1.8"/>
<text x="84.47199994035401" y="121.07455756410573" text-anchor="middle" dominant-baseline="middle" font-size="16" fill="#1e293b" font-weight="bold">80°</text>
<line x1="180" y1="150" x2="260" y2="150" stroke="#4F46E5" stroke-width="2.5" stroke-linecap="round"/>
<line x1="180" y1="150" x2="123.4314575050762" y2="93.4314575050762" stroke="#4F46E5" stroke-width="2.5" stroke-linecap="round"/>
<path d="M 210,150 A 30,30 0 0,0 158.78679656440357,128.78679656440357" fill="none" stroke="#94a3b8" stroke-width="1.8"/>
<text x="197.22075445642903" y="108.4254210369921" text-anchor="middle" dominant-baseline="middle" font-size="16" fill="#1e293b" font-weight="bold">135°</text>
<line x1="330" y1="150" x2="410" y2="150" stroke="#4F46E5" stroke-width="2.5" stroke-linecap="round"/>
<line x1="330" y1="150" x2="357.3616114660535" y2="74.82459033712733" stroke="#4F46E5" stroke-width="2.5" stroke-linecap="round"/>
<path d="M 360,150 A 30,30 0 0,0 340.2606042997701,121.80922137642276" fill="none" stroke="#94a3b8" stroke-width="1.8"/>
<text x="366.86184199300465" y="124.18906036420293" text-anchor="middle" dominant-baseline="middle" font-size="16" fill="#1e293b" font-weight="bold">70°</text>

</svg>