<svg width="300" height="200" viewBox="0 0 300 200" xmlns="http://www.w3.org/2000/svg">
  <rect width="300" height="200" fill="#fff9f2" />
  <!-- Options -->
  <g transform="translate(20, 20)">
    <rect width="40" height="40" fill="#fff" stroke="#94a3b8" />
    <path d="M 5 5 L 35 5 L 5 35 Z" fill="#3b82f6" />
    <text x="20" y="55" font-size="10" text-anchor="middle" fill="#64748b">ㄱ</text>
  </g>
  <g transform="translate(80, 20)">
    <rect width="40" height="40" fill="#fff" stroke="#94a3b8" />
    <path d="M 5 5 L 35 5 L 35 35 Z" fill="#3b82f6" />
    <text x="20" y="55" font-size="10" text-anchor="middle" fill="#64748b">ㄴ</text>
  </g>
  <g transform="translate(140, 20)">
    <rect width="40" height="40" fill="#fff" stroke="#94a3b8" />
    <circle cx="20" cy="20" r="15" fill="#3b82f6" />
    <text x="20" y="55" font-size="10" text-anchor="middle" fill="#64748b">ㄷ</text>
  </g>
  <g transform="translate(200, 20)">
    <rect width="40" height="40" fill="#fff" stroke="#94a3b8" />
    <rect x="5" y="5" width="30" height="30" fill="#3b82f6" />
    <text x="20" y="55" font-size="10" text-anchor="middle" fill="#64748b">ㄹ</text>
  </g>
  
  <!-- Target Pattern -->
  <text x="150" y="100" font-size="12" font-weight="bold" text-anchor="middle" fill="#1e293b">[ 완성된 무늬 ]</text>
  <g transform="translate(110, 110)">
    <rect width="80" height="80" fill="#fff" stroke="#cbd5e1" />
    <path d="M 5 5 L 75 5 L 75 75 Z" fill="#3b82f6" opacity="0.5" />
    <path d="M 75 75 L 5 75 L 5 5 Z" fill="#3b82f6" opacity="0.3" />
  </g>
</svg>
